<svg xmlns="http://www.w3.org/2000/svg" width="24" height="24" viewBox="0 0 24 24" fill="none">
  <rect width="24" height="24" rx="6" fill="white"/>
  <path d="M12 11.5V13.5H16.2C16 14.8 15 16 13 16.5V18H15.5C17.5 16 18.5 13.5 18.5 11.5C18.5 11.1 18.5 10.7 18.4 10.3H12V11.5Z" fill="#4285F4"/>
  <path d="M12 18C9.9 18 8.1 16.9 7.2 15.3L5 17.5C6.7 19.8 9.2 21 12 21C14.5 21 16.7 19.9 18 18.1L15.5 16.5C14.8 17.1 13.9 17.5 12 17.5V18Z" fill="#34A853"/>
  <path d="M5.2 8.5L7.4 10.7C8.3 9.1 10 8 12 8C13.4 8 14.7 8.5 15.6 9.4L17.5 7.5C16.2 6.3 14.2 5.5 12 5.5C9.3 5.5 6.8 6.7 5.2 8.5Z" fill="#FBBC05"/>
  <path d="M12 8C10 8 8.3 9.1 7.4 10.7L5.2 8.5C6.8 6.7 9.3 5.5 12 5.5C14.2 5.5 16.2 6.3 17.5 7.5L15.6 9.4C14.7 8.5 13.4 8 12 8Z" fill="#EA4335"/>
</svg>