<svg xmlns="http://www.w3.org/2000/svg" width="80" height="80" viewBox="0 0 80 80" fill="none">
  <circle cx="40" cy="40" r="38" fill="#E0F2FE" stroke="#E2E8F0" stroke-width="2"/>
  <!-- Face -->
  <circle cx="40" cy="36" r="16" fill="#FDBA74"/>
  <!-- Hair -->
  <path d="M24 32C24 22 31 14 40 14C49 14 56 22 56 32C56 36 54 38 54 38C54 38 52 28 40 28C28 28 26 38 26 38C26 38 24 36 24 32Z" fill="#5D4037"/>
  <!-- Eyes -->
  <circle cx="35" cy="35" r="2" fill="#334155"/>
  <circle cx="45" cy="35" r="2" fill="#334155"/>
  <!-- Smile -->
  <path d="M35 42C37 44 43 44 45 42" stroke="#334155" stroke-width="1.5" stroke-linecap="round"/>
  <!-- Body -->
  <path d="M24 68C24 56 31 50 40 50C49 50 56 56 56 68V80H24V68Z" fill="#3B82F6"/>
</svg>