<svg xmlns="http://www.w3.org/2000/svg" width="80" height="80" viewBox="0 0 80 80" fill="none">
  <circle cx="40" cy="40" r="38" fill="#FCE7F3" stroke="#E2E8F0" stroke-width="2"/>
  <!-- Face -->
  <circle cx="40" cy="36" r="16" fill="#FDBA74"/>
  <!-- Hair -->
  <path d="M24 32C24 20 31 12 40 12C49 12 56 20 56 32V40C56 44 52 44 52 40V36C52 28 46 24 40 24C34 24 28 28 28 36V40C28 44 24 44 24 40V32Z" fill="#5D4037"/>
  <!-- Eyes -->
  <circle cx="35" cy="35" r="2" fill="#334155"/>
  <circle cx="45" cy="35" r="2" fill="#334155"/>
  <!-- Smile -->
  <path d="M35 42C37 44 43 44 45 42" stroke="#334155" stroke-width="1.5" stroke-linecap="round"/>
  <!-- Body -->
  <path d="M24 68C24 56 31 50 40 50C49 50 56 56 56 68V80H24V68Z" fill="#EC4899"/>
</svg>