<svg xmlns="http://www.w3.org/2000/svg" width="300" height="160" viewBox="0 0 300 160" fill="none">
  <rect width="300" height="160" fill="#F0FDFA"/>
  <circle cx="30" cy="30" r="20" fill="#14B8A6" opacity="0.05"/>
  <circle cx="90" cy="70" r="15" fill="#14B8A6" opacity="0.08"/>
  <circle cx="150" cy="30" r="25" fill="#14B8A6" opacity="0.04"/>
  <circle cx="210" cy="80" r="18" fill="#14B8A6" opacity="0.06"/>
  <circle cx="270" cy="40" r="22" fill="#14B8A6" opacity="0.05"/>
  <circle cx="60" cy="120" r="16" fill="#14B8A6" opacity="0.07"/>
  <circle cx="120" cy="140" r="20" fill="#14B8A6" opacity="0.04"/>
  <circle cx="180" cy="120" r="14" fill="#14B8A6" opacity="0.06"/>
  <circle cx="240" cy="130" r="18" fill="#14B8A6" opacity="0.05"/>
  <circle cx="300" cy="110" r="12" fill="#14B8A6" opacity="0.07"/>
  <!-- Soft droplet shapes -->
  <path d="M40 50C40 50 30 65 30 75C30 80 34 85 40 85C46 85 50 80 50 75C50 65 40 50 40 50Z" fill="#14B8A6" opacity="0.04"/>
  <path d="M160 60C160 60 150 75 150 85C150 90 154 95 160 95C166 95 170 90 170 85C170 75 160 60 160 60Z" fill="#14B8A6" opacity="0.05"/>
  <path d="M260 90C260 90 250 105 250 115C250 120 254 125 260 125C266 125 270 120 270 115C270 105 260 90 260 90Z" fill="#14B8A6" opacity="0.04"/>
</svg>